<svg xmlns="http://www.w3.org/2000/svg" version="1.1" xmlns:xlink="http://www.w3.org/1999/xlink" width="859" height="857"><svg width="859" height="857" viewBox="0 0 859 857" fill="none" xmlns="http://www.w3.org/2000/svg">
<path d="M299.529 25.6865C314.936 -0.527172 349.538 -8.05504 374.45 9.53609L375.037 9.95699L376.508 11.0175C438.897 55.7351 519.162 74.6264 599.863 56.6416C607.347 54.9739 614.687 53.02 621.877 50.7988L622.064 50.7421L622.25 50.6875L622.995 50.4697L623.143 50.4267L623.291 50.3847C653.408 41.9936 684.251 61.9074 688.791 93.0507C689.799 99.9633 691.072 106.899 692.62 113.845C710.85 195.646 763.195 260.956 831.521 298.211C858.983 313.185 867.104 348.774 849.011 374.156L848.578 374.754C802.538 437.496 782.879 518.852 801.109 600.653C802.591 607.303 804.298 613.84 806.218 620.256C815.359 650.814 795.131 682.338 763.543 686.763C756.115 687.803 748.66 689.151 741.194 690.814C659.625 708.993 594.455 761.089 557.147 829.128C542.155 856.468 506.706 864.557 481.361 846.581L480.764 846.15C418.095 800.392 336.969 780.899 255.4 799.077C249.478 800.397 243.645 801.895 237.905 803.563C207.916 812.28 177.051 792.826 171.977 762.018L171.626 759.914L171.321 758.152C170.595 754.042 169.775 749.932 168.859 745.823C150.564 663.731 97.9078 598.241 29.2227 561.057L27.5967 560.184C-0.554326 545.181 -8.72035 508.628 10.3487 483.072L11.546 481.459C57.9074 418.636 77.7519 337.015 59.4629 254.949C57.9353 248.095 56.1682 241.359 54.1749 234.749C45.0283 204.416 64.8585 173.005 96.1807 168.224L98.542 167.852C104.052 166.964 109.57 165.908 115.087 164.679C196.424 146.552 261.453 94.6992 298.814 26.9443L298.888 26.8105L298.963 26.6777L299.339 26.0146L299.433 25.8486L299.529 25.6865ZM360.348 30.1738C347.37 20.7452 329.145 24.6128 321.072 38.3476L320.696 39.0107C280.021 112.778 209.146 169.319 120.523 189.069C113.66 190.599 106.799 191.882 99.9512 192.927C83.6586 195.414 73.3418 211.754 78.0997 227.533C80.2693 234.727 82.1929 242.056 83.8545 249.513C103.789 338.962 82.1132 427.962 31.6016 496.368L30.4024 497.98C20.4496 511.276 24.6936 530.319 39.3497 538.13C114.991 578.441 173.158 650.233 193.25 740.387C194.389 745.499 195.391 750.611 196.261 755.719L196.626 757.908C199.242 773.96 215.314 784.106 230.93 779.567C237.176 777.752 243.523 776.121 249.965 774.685C338.841 754.879 427.271 776.151 495.5 825.969C508.703 835.609 527.374 831.447 535.234 817.113C575.853 743.038 646.882 686.23 735.758 666.423C743.876 664.614 751.988 663.147 760.076 662.015C776.508 659.713 787.031 643.314 782.276 627.418C780.187 620.433 778.329 613.321 776.718 606.089C756.855 516.959 778.306 428.278 828.431 359.97C838.133 346.748 833.955 328.002 819.557 320.151C745.169 279.592 688.092 208.411 668.229 119.28C666.545 111.728 665.16 104.182 664.063 96.6562C661.702 80.4589 645.655 70.0947 629.998 74.457L629.253 74.6748C621.427 77.0926 613.439 79.2181 605.299 81.0322C516.676 100.782 428.498 79.6883 360.348 30.1738ZM513.199 805.299C513.158 805.358 513.112 805.415 513.065 805.469C513.113 805.414 513.159 805.354 513.201 805.293L513.199 805.299ZM403.981 496.09C411.84 498.99 420.338 500.575 429.211 500.575C429.54 500.575 429.87 500.573 430.201 500.568L431.893 500.546L498.667 800.172L494.389 797.39C423.273 751.133 334.326 732.418 244.983 752.329C243.627 752.631 242.273 752.943 240.921 753.262L235.901 754.447L402.413 495.512L403.981 496.09ZM742.628 641.608L737.568 642.626C735.306 643.081 733.041 643.561 730.776 644.065C641.235 664.021 568.528 718.932 523.809 791.247L521.118 795.599L454.379 496.136L456.031 495.482C466.173 491.466 475.201 485.238 482.52 477.392L483.703 476.124L742.628 641.608ZM362.421 456.917C366.771 466.844 373.273 475.616 381.335 482.645L382.691 483.828L216.955 741.56L215.882 736.658C215.785 736.215 215.703 735.823 215.609 735.404C195.209 643.864 138.273 569.918 63.5577 525.483L59.0489 522.803L361.732 455.347L362.421 456.917ZM799.577 361.43C753.207 432.585 734.427 521.63 754.36 611.073C754.939 613.67 755.549 616.255 756.187 618.824L757.444 623.892L496.059 456.833L496.715 455.227C500.183 446.733 502.097 437.437 502.097 427.689C502.097 427.057 502.088 426.425 502.072 425.794L502.029 424.081L802.367 357.148L799.577 361.43ZM363.091 396.924L362.376 398.561C358.484 407.48 356.324 417.33 356.324 427.689C356.324 428.897 356.354 430.098 356.412 431.292L356.497 433.045L57.3565 499.711L60.1827 495.415C107.147 424.055 126.263 334.494 106.214 244.53C105.715 242.292 105.193 240.063 104.65 237.845L103.424 232.833L363.091 396.924ZM430.061 375.635C436.015 375.73 441.729 376.827 447.041 378.764C455.741 381.935 463.353 387.36 469.176 394.328C471.615 397.247 473.741 400.436 475.502 403.848C476.717 406.203 477.759 408.663 478.608 411.211C478.836 411.892 479.049 412.58 479.248 413.273C480.566 417.853 481.273 422.69 481.273 427.689C481.273 428.967 481.225 430.232 481.135 431.484C480.853 435.396 480.136 439.188 479.037 442.813C476.223 452.096 470.889 460.277 463.834 466.564C460.34 469.679 456.422 472.33 452.177 474.42C445.248 477.831 437.451 479.751 429.211 479.751C427.598 479.751 426.001 479.677 424.426 479.533C422.145 479.325 419.908 478.967 417.724 478.475L416.79 478.255C407.332 475.939 398.892 471.045 392.257 464.358C388.919 460.995 386.038 457.177 383.712 453.006C379.533 445.51 377.149 436.876 377.148 427.689C377.148 427.044 377.16 426.401 377.184 425.761C377.376 420.483 378.358 415.405 380.009 410.64C383.179 401.491 388.824 393.502 396.144 387.477C398.283 385.715 400.566 384.123 402.971 382.717C409.89 378.671 417.827 376.175 426.302 375.708C426.401 375.702 426.531 375.694 426.652 375.688C427.501 375.647 428.354 375.627 429.211 375.627C429.497 375.627 429.781 375.63 430.061 375.635ZM642.929 109.498C643.793 114.417 644.774 119.341 645.871 124.265C665.92 214.228 721.257 287.197 794.077 331.861L798.461 334.551L497.334 401.657L496.667 400.034C492.761 390.517 486.898 382.006 479.577 375.005L478.368 373.85L641.971 104.042L642.929 109.498ZM400.697 360.569L399.156 361.267C390.859 365.027 383.389 370.298 377.1 376.728L375.923 377.933L115.704 213.494L120.75 212.448C122.339 212.119 123.926 211.781 125.508 211.429C214.333 191.633 286.59 137.435 331.395 65.9755L334.088 61.6796L400.697 360.569ZM360.401 58.0205C431.596 104.505 520.741 123.348 610.284 103.393C610.731 103.293 611.175 103.191 611.631 103.087L616.419 101.999L459.233 361.227L457.575 360.526C448.86 356.841 439.276 354.803 429.211 354.803C427.7 354.803 426.198 354.849 424.709 354.939L422.936 355.048L356.117 55.2226L360.401 58.0205Z" fill="#8537FF"></path>
</svg><style>@media (prefers-color-scheme: light) { :root { filter: none; } }
@media (prefers-color-scheme: dark) { :root { filter: none; } }
</style></svg>