<?xml version="1.0" encoding="UTF-8"?>
<svg id="Layer_2" data-name="Layer 2" xmlns="http://www.w3.org/2000/svg" viewBox="0 0 235.92 237.06">
  <defs>
    <style>
      .cls-1 {
        fill: #8c40fe;
      }
    </style>
  </defs>
  <g id="Layer_1-2" data-name="Layer 1">
    <g>
      <path class="cls-1" d="M235.68,84.14c-.43-1.4-1.39-2.56-2.69-3.24-1.3-.68-2.79-.82-4.19-.39l-2.05.64c-16-12.11-32.78-34.14-40.33-52.95l1.41-2.18c1.64-2.54.91-5.95-1.63-7.61-2.55-1.65-5.96-.91-7.6,1.63l-1.16,1.8c-20.51,1.06-47.93-5.23-65.88-15.1l-.25-1.94c-.39-3.01-3.15-5.13-6.16-4.75-3.01.39-5.14,3.15-4.75,6.16l.33,2.57c-14.89,13.53-39.41,26.01-58.95,30.01l-1.75-1.63c-2.22-2.01-5.69-1.86-7.72.32-1,1.07-1.52,2.48-1.47,3.94.05,1.47.67,2.83,1.75,3.83l1.76,1.64c-2.58,19.86-13.26,45.27-25.68,61.07l-2.86-.16c-1.47-.08-2.88.41-3.97,1.39-1.1.98-1.74,2.33-1.83,3.79-.09,1.67.56,3.27,1.81,4.39.93.84,2.13,1.34,3.38,1.41l2.52.14c11.06,17.09,19.31,43.8,19.82,64.19l-1.8,1.36c-1.17.89-1.93,2.17-2.13,3.63-.2,1.46.17,2.9,1.06,4.08.21.28.45.54.7.77,1.95,1.76,4.9,1.89,7,.31l2.01-1.52c19.27,6.06,41.83,20.59,55.4,35.68l-.67,2.88c-.46,1.95.18,4,1.67,5.34.69.62,1.53,1.06,2.43,1.27.42.1.84.15,1.27.15,1.01,0,2.01-.28,2.89-.83,1.25-.77,2.12-1.99,2.46-3.42l.54-2.29c18.81-8.01,46.68-11.52,66.97-8.45l1.02,1.98c.3.59.71,1.12,1.2,1.56,1.69,1.53,4.19,1.85,6.21.8,1.31-.67,2.27-1.82,2.72-3.22.45-1.4.32-2.89-.35-4.19l-1.17-2.26c9.26-17.76,27.99-37.92,45-48.45l2.24.94c1.36.57,2.85.58,4.21.02,1.36-.56,2.42-1.61,2.99-2.96.57-1.36.58-2.85.02-4.22-.56-1.36-1.61-2.42-2.96-2.99l-1.98-.83c-4.46-19.6-3.14-47.27,3.19-66.51l2.41-.75c2.9-.9,4.52-3.98,3.63-6.88ZM134.18,117.66c.29,1.82.18,3.7-.31,5.5l93.22,39.18c.49.21.87.59,1.08,1.09.2.49.2,1.04,0,1.53-.21.49-.59.87-1.09,1.08-.49.2-1.04.2-1.53,0l-93.31-39.22c-.37.56-.76,1.11-1.23,1.62-.76.84-1.62,1.55-2.53,2.15l46.53,90.05c.25.47.29,1.02.13,1.52-.16.51-.51.92-.99,1.17-.95.49-2.2.1-2.69-.86l-46.63-90.24c-1.67.46-3.42.59-5.13.37l-23.28,99.43c-.12.52-.44.96-.89,1.24-.45.28-.99.37-1.51.25-1.05-.25-1.73-1.37-1.49-2.4l23.33-99.63c-1.14-.53-2.22-1.24-3.2-2.12-.21-.19-.4-.4-.6-.6l-81.79,61.72c-.87.65-2.14.49-2.8-.39-.32-.43-.46-.95-.38-1.48.07-.53.35-1,.78-1.32l81.88-61.79c-.69-1.39-1.12-2.89-1.28-4.41l-103.06-5.78c-1.07-.06-1.95-1.04-1.88-2.11.03-.53.27-1.02.66-1.38.4-.36.91-.54,1.45-.51l103.02,5.78c.3-1.47.85-2.89,1.67-4.21L34.97,42.69c-.39-.36-.62-.86-.64-1.39-.02-.53.17-1.04.54-1.43.76-.81,1.99-.86,2.81-.12,0,0,.01.01.02.02l75.22,70.07c1.24-1.06,2.63-1.86,4.11-2.38L103.86,5.76c-.14-1.09.63-2.1,1.73-2.24,1.09-.14,2.1.63,2.24,1.73l13.13,101.48c1.74-.05,3.49.25,5.14.89l55.43-85.68c.6-.93,1.84-1.19,2.76-.6.92.6,1.19,1.85.6,2.77l-55.33,85.53c.17.14.34.27.51.41,1.23,1.11,2.18,2.4,2.88,3.8l96.89-30c.51-.16,1.05-.11,1.52.14.47.25.82.67.98,1.18.33,1.05-.27,2.18-1.32,2.5l-96.84,29.98Z"/>
      <path class="cls-1" d="M127.39,113.02c-3.68-3.33-9.38-3.04-12.71.65-3.33,3.68-3.04,9.39.65,12.71,3.68,3.33,9.38,3.04,12.71-.65,3.33-3.68,3.04-9.39-.65-12.71Z"/>
    </g>
  </g>
</svg>