<svg width="79" height="80" viewBox="0 0 79 80" fill="none" xmlns="http://www.w3.org/2000/svg">
<path d="M79.2267 28.0466C79.0833 27.58 78.7633 27.1933 78.33 26.9666C77.8967 26.74 77.4 26.6933 76.9333 26.8366L76.25 27.05C70.9167 23.0133 65.3233 15.67 62.8067 9.39997L63.2767 8.67331C63.8233 7.82664 63.58 6.68997 62.7333 6.13664C61.8833 5.58664 60.7467 5.83331 60.2 6.67997L59.8133 7.27997C52.9767 7.6333 43.8366 5.53664 37.8533 2.24664L37.77 1.59997C37.64 0.596638 36.72 -0.110029 35.7167 0.0166378C34.7133 0.146638 34.0033 1.06664 34.1333 2.06997L34.2433 2.92664C29.28 7.43664 21.1067 11.5966 14.5933 12.93L14.01 12.3866C13.27 11.7166 12.1133 11.7666 11.4367 12.4933C11.1033 12.85 10.93 13.32 10.9467 13.8066C10.9633 14.2966 11.17 14.75 11.53 15.0833L12.1166 15.63C11.2566 22.25 7.69665 30.72 3.55665 35.9866L2.60332 35.9333C2.11332 35.9066 1.64332 36.07 1.27998 36.3966C0.913317 36.7233 0.699983 37.1733 0.669983 37.66C0.639983 38.2166 0.85665 38.75 1.27332 39.1233C1.58332 39.4033 1.98332 39.57 2.39998 39.5933L3.23998 39.64C6.92665 45.3366 9.67665 54.24 9.84665 61.0366L9.24665 61.49C8.85665 61.7866 8.60332 62.2133 8.53665 62.7C8.46998 63.1866 8.59332 63.6666 8.88998 64.06C8.95998 64.1533 9.03998 64.24 9.12332 64.3166C9.77332 64.9033 10.7567 64.9466 11.4567 64.42L12.1267 63.9133C18.55 65.9333 26.07 70.7766 30.5933 75.8066L30.37 76.7666C30.2166 77.4166 30.43 78.1 30.9266 78.5466C31.1566 78.7533 31.4366 78.9 31.7366 78.97C31.8766 79.0033 32.0167 79.02 32.16 79.02C32.4967 79.02 32.83 78.9266 33.1233 78.7433C33.54 78.4866 33.83 78.08 33.9433 77.6033L34.1233 76.84C40.3933 74.17 49.6833 73 56.4467 74.0233L56.7867 74.6833C56.8867 74.88 57.0233 75.0566 57.1867 75.2033C57.75 75.7133 58.5833 75.82 59.2567 75.47C59.6933 75.2466 60.0133 74.8633 60.1633 74.3966C60.3133 73.93 60.27 73.4333 60.0467 73L59.6567 72.2466C62.7433 66.3266 68.9867 59.6066 74.6567 56.0966L75.4033 56.41C75.8567 56.6 76.3533 56.6033 76.8067 56.4166C77.26 56.23 77.6133 55.88 77.8033 55.43C77.9933 54.9766 77.9967 54.48 77.81 54.0233C77.6233 53.57 77.2733 53.2166 76.8233 53.0266L76.1633 52.75C74.6767 46.2166 75.1167 36.9933 77.2267 30.58L78.03 30.33C78.9967 30.03 79.5367 29.0033 79.24 28.0366L79.2267 28.0466ZM45.3933 39.22C45.49 39.8266 45.4533 40.4533 45.29 41.0533L76.3633 54.1133C76.5267 54.1833 76.6533 54.31 76.7233 54.4766C76.79 54.64 76.79 54.8233 76.7233 54.9866C76.6533 55.15 76.5267 55.2766 76.36 55.3466C76.1967 55.4133 76.0133 55.4133 75.85 55.3466L44.7467 42.2733C44.6233 42.46 44.4933 42.6433 44.3367 42.8133C44.0833 43.0933 43.7967 43.33 43.4933 43.53L59.0033 73.5466C59.0867 73.7033 59.1 73.8866 59.0467 74.0533C58.9933 74.2233 58.8767 74.36 58.7167 74.4433C58.4 74.6066 57.9833 74.4766 57.82 74.1566L42.2767 44.0766C41.72 44.23 41.1366 44.2733 40.5666 44.2L32.8066 77.3433C32.7666 77.5166 32.66 77.6633 32.51 77.7566C32.36 77.85 32.18 77.88 32.0066 77.84C31.6566 77.7566 31.43 77.3833 31.51 77.04L39.2867 43.83C38.9067 43.6533 38.5467 43.4166 38.22 43.1233C38.15 43.06 38.0866 42.99 38.02 42.9233L10.7567 63.4966C10.4667 63.7133 10.0433 63.66 9.82332 63.3666C9.71665 63.2233 9.66998 63.05 9.69665 62.8733C9.71998 62.6966 9.81332 62.54 9.95665 62.4333L37.25 41.8366C37.02 41.3733 36.8767 40.8733 36.8233 40.3666L2.46998 38.44C2.11332 38.42 1.81998 38.0933 1.84332 37.7366C1.85332 37.56 1.93332 37.3966 2.06332 37.2766C2.19665 37.1566 2.36665 37.0966 2.54665 37.1066L36.8867 39.0333C36.9867 38.5433 37.17 38.07 37.4433 37.63L12.3233 14.23C12.1933 14.11 12.1167 13.9433 12.11 13.7666C12.1033 13.59 12.1667 13.42 12.29 13.29C12.5433 13.02 12.9533 13.0033 13.2267 13.25C13.2267 13.25 13.23 13.2533 13.2333 13.2566L38.3066 36.6133C38.72 36.26 39.1833 35.9933 39.6766 35.82L35.2867 1.91997C35.24 1.55664 35.4966 1.21997 35.8633 1.1733C36.2266 1.12664 36.5633 1.3833 36.61 1.74997L40.9866 35.5766C41.5666 35.56 42.15 35.66 42.7 35.8733L61.1767 7.31331C61.3767 7.00331 61.79 6.91664 62.0967 7.1133C62.4033 7.3133 62.4933 7.72997 62.2967 8.03664L43.8533 36.5466C43.91 36.5933 43.9667 36.6366 44.0233 36.6833C44.4333 37.0533 44.75 37.4833 44.9833 37.95L77.28 27.95C77.45 27.8966 77.63 27.9133 77.7867 27.9966C77.9433 28.08 78.06 28.22 78.1133 28.39C78.2233 28.74 78.0233 29.1166 77.6733 29.2233L45.3933 39.2166V39.22Z" fill="url(#paint0_linear_47_361)"/>
<path d="M43.1299 37.6734C41.9032 36.5634 40.0032 36.66 38.8932 37.89C37.7832 39.1167 37.8799 41.02 39.1099 42.1267C40.3365 43.2367 42.2365 43.14 43.3465 41.91C44.4565 40.6834 44.3599 38.78 43.1299 37.6734Z" fill="url(#paint1_linear_47_361)"/>
<defs>
<linearGradient id="paint0_linear_47_361" x1="33.7433" y1="-11.61" x2="43.41" y2="57.7233" gradientUnits="userSpaceOnUse">
<stop stop-color="#A457FE"/>
<stop offset="0.17" stop-color="#974AFF"/>
<stop offset="0.42" stop-color="#8B3EFE"/>
<stop offset="0.8" stop-color="#8537FF"/>
<stop offset="1" stop-color="#6D20FE"/>
</linearGradient>
<linearGradient id="paint1_linear_47_361" x1="33.9332" y1="-11.6366" x2="43.5999" y2="57.6967" gradientUnits="userSpaceOnUse">
<stop stop-color="#A457FE"/>
<stop offset="0.17" stop-color="#974AFF"/>
<stop offset="0.42" stop-color="#8B3EFE"/>
<stop offset="0.8" stop-color="#8537FF"/>
<stop offset="1" stop-color="#6D20FE"/>
</linearGradient>
</defs>
</svg>
