<svg xmlns="http://www.w3.org/2000/svg" width="859" height="857" fill="none"><path fill="#8537FF" d="M299.529 25.687C314.936-.527 349.538-8.055 374.45 9.537l.587.42 1.471 1.06c62.389 44.718 142.654 63.61 223.355 45.625a283 283 0 0 0 22.014-5.843l.187-.057.186-.054.745-.218.148-.043.148-.042c30.117-8.391 60.96 11.522 65.5 42.666a284 284 0 0 0 3.829 20.794c18.23 81.801 70.575 147.111 138.901 184.366 27.462 14.974 35.583 50.563 17.49 75.945l-.433.598c-46.04 62.742-65.699 144.098-47.469 225.899a283 283 0 0 0 5.109 19.603c9.141 30.558-11.087 62.082-42.675 66.507a284 284 0 0 0-22.349 4.051c-81.569 18.179-146.739 70.275-184.047 138.314-14.992 27.34-50.441 35.429-75.786 17.453l-.597-.431c-62.669-45.758-143.795-65.251-225.364-47.073a285 285 0 0 0-17.495 4.486c-29.989 8.717-60.854-10.737-65.928-41.545l-.351-2.104-.305-1.762a283 283 0 0 0-2.462-12.329c-18.295-82.092-70.951-147.582-139.636-184.766l-1.626-.873C-.554 545.181-8.72 508.628 10.349 483.072l1.197-1.613c46.361-62.823 66.206-144.444 47.917-226.51a284 284 0 0 0-5.288-20.2c-9.147-30.333 10.684-61.744 42.006-66.525l2.361-.372a284 284 0 0 0 16.545-3.173c81.337-18.127 146.366-69.98 183.727-137.735l.074-.133.075-.133.376-.663.094-.166zm60.819 4.487c-12.978-9.429-31.203-5.561-39.276 8.174l-.376.663c-40.675 73.767-111.55 130.308-200.173 150.058a308 308 0 0 1-20.572 3.858c-16.292 2.487-26.61 18.827-21.851 34.606a309 309 0 0 1 5.755 21.98c19.934 89.449-1.742 178.449-52.253 246.855l-1.2 1.612c-9.952 13.296-5.708 32.339 8.948 40.15 75.641 40.311 133.808 112.103 153.9 202.257a309 309 0 0 1 3.011 15.332l.365 2.189c2.616 16.052 18.688 26.198 34.304 21.659a310 310 0 0 1 19.035-4.882c88.876-19.806 177.306 1.466 245.535 51.284 13.203 9.64 31.874 5.478 39.734-8.856 40.619-74.075 111.648-130.883 200.524-150.69a308 308 0 0 1 24.318-4.408c16.432-2.302 26.955-18.701 22.2-34.597a309 309 0 0 1-5.558-21.329c-19.863-89.13 1.588-177.811 51.713-246.119 9.702-13.222 5.524-31.968-8.874-39.819-74.388-40.559-131.465-111.74-151.328-200.871a308 308 0 0 1-4.166-22.624c-2.361-16.197-18.408-26.561-34.065-22.199l-.745.218a308 308 0 0 1-23.954 6.357c-88.623 19.75-176.801-1.344-244.951-50.858m152.851 775.125.002-.006zM403.981 496.09a72.7 72.7 0 0 0 26.22 4.478l1.692-.022 66.774 299.626-4.278-2.782c-71.116-46.257-160.063-64.972-249.406-45.061q-2.034.454-4.062.933l-5.02 1.185 166.512-258.935zm338.647 145.518-5.06 1.018q-3.394.683-6.792 1.439c-89.541 19.956-162.248 74.867-206.967 147.182l-2.691 4.352-66.739-299.463 1.652-.654a73 73 0 0 0 26.489-18.09l1.183-1.268zM362.421 456.917a73.1 73.1 0 0 0 18.914 25.728l1.356 1.183L216.955 741.56l-1.073-4.902c-.097-.443-.179-.835-.273-1.254-20.4-91.54-77.336-165.486-152.051-209.921l-4.51-2.68 302.684-67.456zm437.156-95.487c-46.37 71.155-65.15 160.2-45.217 249.643a331 331 0 0 0 1.827 7.751l1.257 5.068-261.385-167.059.656-1.606c3.468-8.494 5.382-17.79 5.382-27.538q0-.948-.025-1.895l-.043-1.713 300.338-66.933zm-436.486 35.494-.715 1.637c-3.892 8.919-6.052 18.769-6.052 29.128q0 1.812.088 3.603l.085 1.753-299.14 66.666 2.826-4.296c46.964-71.36 66.08-160.921 46.031-250.885a332 332 0 0 0-1.564-6.685l-1.226-5.012zm66.97-21.289a51.9 51.9 0 0 1 16.98 3.129 52.16 52.16 0 0 1 22.135 15.564 52 52 0 0 1 6.326 9.52 51.7 51.7 0 0 1 3.746 9.425 52 52 0 0 1 2.025 14.416q-.001 1.917-.138 3.795a52 52 0 0 1-2.098 11.329c-2.814 9.283-8.148 17.464-15.203 23.751a52.1 52.1 0 0 1-11.657 7.856 51.86 51.86 0 0 1-22.966 5.331 51.957 51.957 0 0 1-11.487-1.276l-.934-.22a52 52 0 0 1-24.533-13.897 52.2 52.2 0 0 1-8.545-11.352 51.85 51.85 0 0 1-6.528-27.245 51.9 51.9 0 0 1 2.825-15.121 52.14 52.14 0 0 1 16.135-23.163 52 52 0 0 1 6.827-4.76 51.76 51.76 0 0 1 23.331-7.009l.35-.02a53 53 0 0 1 3.409-.053m212.868-266.137a332 332 0 0 0 2.942 14.767c20.049 89.963 75.386 162.932 148.206 207.596l4.384 2.69-301.127 67.106-.667-1.623a73 73 0 0 0-17.09-25.029l-1.209-1.155 163.603-269.808zM400.697 360.569l-1.541.698a73 73 0 0 0-22.056 15.461l-1.177 1.205-260.219-164.439 5.046-1.046q2.384-.492 4.758-1.019c88.825-19.796 161.082-73.994 205.887-145.454l2.693-4.295zM360.401 58.021c71.195 46.484 160.34 65.327 249.883 45.372.447-.1.891-.202 1.347-.306l4.788-1.088-157.186 259.228-1.658-.701c-8.715-3.685-18.299-5.723-28.364-5.723q-2.268 0-4.502.136l-1.773.109-66.819-299.825z"/></svg>