<svg width="1288" height="429" viewBox="0 0 1288 429" fill="none" xmlns="http://www.w3.org/2000/svg">
<path d="M392.42 135.77C394.18 135.25 408.62 135.05 435.75 135.18C441.75 135.25 446.3 135.28 449.4 135.28C452.5 135.28 456.12 135.35 460.26 135.48C464.4 135.61 467.37 135.71 469.16 135.77C470.95 135.84 473.23 136.03 476.01 136.36C478.78 136.69 480.64 136.95 481.59 137.14C482.53 137.34 483.92 137.74 485.75 138.36C487.57 138.98 488.8 139.52 489.42 139.97C490.04 140.43 491.03 141.18 492.4 142.22C493.77 143.26 494.83 144.19 495.58 145.01C496.33 145.83 497.39 146.98 498.76 148.48C504.69 154.81 507.55 163.12 507.32 173.42C507.09 183.72 503.88 192.53 497.68 199.83C488.22 210.98 470.88 216.56 445.64 216.56C437.75 216.56 433.09 216.72 431.65 217.05C429.3 217.57 427.83 218.97 427.25 221.26C426.86 222.89 426.66 227.91 426.66 236.32V237.89C426.66 241.35 426.68 243.99 426.71 245.81C426.74 247.64 426.77 249.53 426.81 251.48C426.84 253.44 426.96 254.84 427.15 255.69C427.35 256.54 427.54 257.4 427.74 258.28C427.94 259.16 428.26 259.8 428.72 260.19C429.18 260.58 429.62 260.94 430.04 261.27C430.46 261.6 431.1 261.95 431.95 262.35C433.12 262.87 434.64 263.83 436.5 265.24C438.36 266.64 440.27 267.83 442.22 268.81C444.18 269.72 445.4 271.03 445.89 272.72C446.38 274.42 445.91 275.85 444.47 277.02C443.23 278 434.12 278.49 417.13 278.49C400.14 278.49 391.12 277.97 390.08 276.92C388.58 275.42 388.25 273.59 389.1 271.44C389.95 269.29 391.51 267.82 393.8 267.04C395.1 266.58 396.16 266.1 396.98 265.57C397.79 265.05 398.58 264.41 399.33 263.66C400.08 262.91 400.67 261.69 401.09 259.99C401.51 258.29 401.9 256.5 402.26 254.61C402.62 252.72 402.91 249.91 403.14 246.2C403.37 242.48 403.56 238.67 403.73 234.75C403.89 230.84 404.07 225.62 404.27 219.1C405.57 176.06 405.38 153.14 403.68 150.33C402.9 149.03 401.64 147.88 399.91 146.91C398.18 145.93 396.54 145.44 394.97 145.44C393.21 145.44 391.79 144.76 390.71 143.39C389.63 142.02 389.24 140.55 389.54 138.99C389.84 137.43 390.79 136.35 392.43 135.76L392.42 135.77ZM467.94 148.29C465.01 147.38 458.29 146.79 447.79 146.53C445.64 146.47 443.96 146.42 442.75 146.38C441.54 146.35 440.21 146.35 438.74 146.38C437.27 146.41 436.2 146.43 435.51 146.43C434.82 146.43 434.03 146.53 433.11 146.72C432.2 146.92 431.58 147.06 431.25 147.16C430.92 147.26 430.53 147.49 430.08 147.84C429.62 148.2 429.33 148.52 429.2 148.82C429.07 149.11 428.91 149.57 428.71 150.19C428.51 150.81 428.38 151.36 428.32 151.85C428.25 152.34 428.19 153.04 428.12 153.95C427.47 159.17 427.08 168.62 426.95 182.32C426.82 196.01 427.01 203.16 427.54 203.74C428.26 204.59 433.1 204.88 442.07 204.62C451.04 204.36 457.25 203.77 460.7 202.86C464.94 201.69 468.64 199.76 471.8 197.09C474.96 194.42 477.85 190.73 480.46 186.04C482.35 182.71 483.43 179.05 483.69 175.04C483.95 171.03 483.49 167.26 482.32 163.74C481.15 160.22 479.3 157.04 476.79 154.2C474.28 151.36 471.33 149.39 467.94 148.28V148.29Z" fill="white"/>
<path d="M543.16 175.78C545.25 175.13 549.06 175.21 554.61 176.02C560.15 176.84 564.95 178.03 568.99 179.59C572.12 180.76 574.7 181.97 576.72 183.21C578.74 184.45 580.58 186.1 582.25 188.15C583.92 190.2 585.18 192.45 586.07 194.9C586.95 197.35 587.7 200.66 588.32 204.83C588.94 209 589.35 213.54 589.54 218.43C589.73 223.32 589.83 229.48 589.83 236.92C589.83 251.59 590.06 259.91 590.51 261.86C590.97 263.56 591.81 264.14 593.05 263.62C593.44 263.49 594.32 263.03 595.69 262.25C598.43 260.68 600.45 260.23 601.75 260.88C603.05 261.53 603.18 263.07 602.14 265.48C601.36 267.37 598.99 270.16 595.05 273.84C591.1 277.52 588.19 279.66 586.3 280.25C583.3 281.16 580.38 280.77 577.55 279.08C574.71 277.38 573.29 275.23 573.29 272.62C573.29 270.92 572.85 269.9 571.97 269.54C571.09 269.18 570 269.56 568.69 270.66C566.8 272.29 564.22 273.89 560.96 275.45C557.7 277.02 554.11 278.35 550.2 279.46C546.29 280.57 542.14 281.06 537.78 280.93C533.41 280.8 529.56 279.85 526.24 278.09C520.96 275.42 517.29 272.37 515.24 268.94C513.19 265.51 512.16 260.81 512.16 254.8C512.16 249.84 512.93 245.8 514.46 242.67C515.99 239.54 518.91 236.05 523.21 232.2C530.25 225.94 535.98 221.78 540.38 219.73C544.78 217.68 551.71 215.96 561.17 214.59C565.02 214 567.3 212.93 568.02 211.36C568.74 209.79 568.31 206.86 566.75 202.56C564.79 197.21 561.84 192.99 557.9 189.89C553.95 186.79 549.31 185.02 543.96 184.56C541.35 184.3 538.95 184.82 536.77 186.13C534.58 187.44 532.95 189.06 531.88 191.02C530.81 192.98 530.36 195.16 530.56 197.57C530.76 199.98 531.7 202.13 533.4 204.03C536.53 207.42 538.08 210.05 538.05 211.9C538.02 213.76 536.37 215.6 533.11 217.43C527.24 220.82 521.5 219.29 515.89 212.83C512.89 209.37 511.16 205.8 510.71 202.12C510.25 198.44 510.94 195.01 512.76 191.85C514.58 188.69 517.52 185.82 521.56 183.24C525.6 180.66 530.46 178.73 536.14 177.42C540.7 176.38 543.05 175.82 543.18 175.76L543.16 175.78ZM568.5 224.59C567.85 223.48 567.18 222.91 566.49 222.88C565.81 222.85 564.48 223.26 562.53 224.1C561.68 224.56 558.65 225.67 553.43 227.43C545.8 229.97 540.13 232.99 536.41 236.48C532.69 239.97 530.87 244.03 530.93 248.66C530.99 252.31 532.01 255.57 533.96 258.44C535.92 261.31 538.39 263.36 541.39 264.6C544.39 265.84 547.52 266.51 550.78 266.61C554.04 266.71 557.19 265.86 560.22 264.07C563.25 262.28 565.58 259.72 567.21 256.39C568.51 253.72 569.34 248.26 569.7 240C570.06 231.75 569.65 226.61 568.48 224.59H568.5Z" fill="white"/>
<path d="M658.98 179.98C662.24 178.87 664.52 178.24 665.83 178.07C667.13 177.91 668.67 178.09 670.43 178.61C670.63 178.68 671.49 178.94 673.02 179.39C674.55 179.85 675.68 180.17 676.39 180.37C679.45 181.15 682.44 183.49 685.34 187.36C688.24 191.24 689.69 194.81 689.69 198.07C689.69 200.55 688.29 203.66 685.48 207.41C682.67 211.16 680.36 213.03 678.53 213.03C676.12 213.03 673.74 211.92 671.39 209.7C669.04 207.48 667.38 204.74 666.4 201.48C665.09 197.37 663.53 194.89 661.7 194.05C659.87 193.2 657.36 193.82 654.17 195.91C648.89 199.43 645.27 203.52 643.31 208.19C641.35 212.85 640.08 220.47 639.49 231.03C638.77 244.14 638.9 252.88 639.88 257.25C640.86 261.62 643.47 264.95 647.71 267.23C650.19 268.6 651.8 269.82 652.55 270.9C653.3 271.98 653.41 273.2 652.89 274.57C652.5 275.61 652.12 276.36 651.77 276.82C651.41 277.28 650.51 277.65 649.08 277.94C647.64 278.23 645.98 278.4 644.09 278.43C642.2 278.46 639.03 278.48 634.6 278.48C629.06 278.42 622.57 278.38 615.13 278.38C611.93 278.45 609.73 278.27 608.53 277.84C607.32 277.42 606.36 276.52 605.64 275.15C604.86 273.52 604.69 272.28 605.15 271.43C605.61 270.58 606.91 269.67 609.06 268.69C610.88 267.91 612.29 267.22 613.27 266.64C614.25 266.06 615.19 265.11 616.11 263.8C617.02 262.5 617.66 261.19 618.02 259.89C618.38 258.59 618.72 256.42 619.05 253.38C619.37 250.35 619.57 247.25 619.64 244.09C619.7 240.93 619.77 236.44 619.84 230.64C619.97 214.34 619.81 204.88 619.35 202.27C618.89 199.99 617.95 198.75 616.51 198.55C615.99 198.49 615.01 198.55 613.58 198.75C611.36 199.01 609.96 199.06 609.37 198.9C608.78 198.74 608.16 198.17 607.51 197.19C606.4 195.56 605.99 194.32 606.29 193.47C606.58 192.62 607.67 191.74 609.57 190.83C612.9 189.13 616.99 186.9 621.85 184.13C626.71 181.36 629.27 179.78 629.53 179.39C629.92 178.74 630.9 178.51 632.46 178.71C634.02 178.91 635.13 179.36 635.79 180.08C636.18 180.54 636.56 181.11 636.91 181.79C637.27 182.47 637.56 183.14 637.79 183.8C638.02 184.45 638.25 185.2 638.47 186.05C638.7 186.9 638.88 187.65 639.01 188.3C639.33 189.54 639.58 190.45 639.74 191.04C639.9 191.63 640.15 192.26 640.47 192.95C640.79 193.63 641.14 193.98 641.5 193.98C641.86 193.98 642.33 193.78 642.92 193.39C643.51 193 644.16 192.25 644.88 191.14C648.66 185.73 653.36 182.01 658.97 179.99L658.98 179.98Z" fill="white"/>
<path d="M735.09 175.78C737.18 175.13 740.99 175.21 746.54 176.02C752.08 176.84 756.88 178.03 760.92 179.59C764.05 180.76 766.63 181.97 768.65 183.21C770.67 184.45 772.51 186.1 774.18 188.15C775.85 190.2 777.11 192.45 778 194.9C778.88 197.35 779.63 200.66 780.25 204.83C780.87 209 781.28 213.54 781.47 218.43C781.67 223.32 781.76 229.48 781.76 236.92C781.76 251.59 781.99 259.91 782.44 261.86C782.9 263.56 783.74 264.14 784.98 263.62C785.37 263.49 786.25 263.03 787.62 262.25C790.36 260.68 792.38 260.23 793.68 260.88C794.98 261.53 795.11 263.07 794.07 265.48C793.29 267.37 790.92 270.16 786.98 273.84C783.03 277.52 780.12 279.66 778.23 280.25C775.23 281.16 772.31 280.77 769.48 279.08C766.64 277.38 765.22 275.23 765.22 272.62C765.22 270.92 764.78 269.9 763.9 269.54C763.02 269.18 761.93 269.56 760.62 270.66C758.73 272.29 756.15 273.89 752.89 275.45C749.63 277.02 746.04 278.35 742.13 279.46C738.22 280.57 734.07 281.06 729.71 280.93C725.34 280.8 721.49 279.85 718.17 278.09C712.89 275.42 709.22 272.37 707.17 268.94C705.12 265.51 704.09 260.81 704.09 254.8C704.09 249.84 704.86 245.8 706.39 242.67C707.92 239.54 710.84 236.05 715.14 232.2C722.18 225.94 727.91 221.78 732.31 219.73C736.71 217.68 743.64 215.96 753.1 214.59C756.95 214 759.23 212.93 759.95 211.36C760.67 209.79 760.24 206.86 758.68 202.56C756.72 197.21 753.77 192.99 749.83 189.89C745.88 186.79 741.24 185.02 735.89 184.56C733.28 184.3 730.88 184.82 728.7 186.13C726.51 187.44 724.88 189.06 723.81 191.02C722.74 192.98 722.29 195.16 722.49 197.57C722.69 199.98 723.63 202.13 725.33 204.03C728.46 207.42 730.01 210.05 729.98 211.9C729.95 213.76 728.3 215.6 725.04 217.43C719.17 220.82 713.43 219.29 707.82 212.83C704.82 209.37 703.09 205.8 702.64 202.12C702.18 198.44 702.87 195.01 704.69 191.85C706.51 188.69 709.45 185.82 713.49 183.24C717.53 180.66 722.39 178.73 728.07 177.42C732.63 176.38 734.98 175.82 735.11 175.76L735.09 175.78ZM760.42 224.59C759.77 223.48 759.1 222.91 758.41 222.88C757.73 222.85 756.4 223.26 754.45 224.1C753.6 224.56 750.57 225.67 745.35 227.43C737.72 229.97 732.05 232.99 728.33 236.48C724.61 239.97 722.79 244.03 722.85 248.66C722.91 252.31 723.93 255.57 725.88 258.44C727.84 261.31 730.31 263.36 733.31 264.6C736.31 265.84 739.44 266.51 742.7 266.61C745.96 266.71 749.11 265.86 752.14 264.07C755.17 262.28 757.5 259.72 759.13 256.39C760.43 253.72 761.26 248.26 761.62 240C761.98 231.75 761.57 226.61 760.4 224.59H760.42Z" fill="white"/>
<path d="M797.79 186.63C799.75 185.91 802.35 184.76 805.62 183.16C808.88 181.56 811.68 180.14 814.03 178.9L817.45 177.14C818.1 177.14 818.97 177.68 820.04 178.75C821.11 179.82 821.88 180.92 822.34 182.03C822.8 183.14 823.37 183.84 824.05 184.13C824.73 184.42 825.57 184.36 826.54 183.93C827.52 183.51 828.53 183 829.57 182.41C830.61 181.82 831.97 181.19 833.63 180.5C835.29 179.81 836.94 179.38 838.57 179.18C839.35 179.05 840.87 178.84 843.12 178.54C845.37 178.24 846.95 178.04 847.86 177.9C850.99 177.38 855.34 177.69 860.92 178.83C866.5 179.97 870.49 181.36 872.9 182.99C876.42 185.4 879.93 188.66 883.42 192.77C886.91 196.88 889.27 200.56 890.51 203.82C893.31 211.25 894.78 218.67 894.91 226.07C895.04 233.47 893.87 240.27 891.39 246.47C888.91 252.67 885.49 258.19 881.12 263.05C876.75 267.91 871.35 271.71 864.93 274.45C858.51 277.19 851.58 278.59 844.14 278.66C840.55 278.66 837.72 278.4 835.63 277.88C833.54 277.36 830.87 276.28 827.61 274.65C824.35 273.08 822.39 272.86 821.74 273.97C821.09 275.08 820.76 279.25 820.76 286.49C820.76 292.55 820.97 296.69 821.4 298.91C821.82 301.13 822.62 302.43 823.8 302.82C829.99 304.91 834.32 307.22 836.76 309.77C839.2 312.32 839.45 314.73 837.49 317.01C836.84 317.86 835.39 318.35 833.14 318.48C830.89 318.61 823.93 318.71 812.26 318.77C798.69 318.83 790.94 318.64 788.98 318.18C787.35 317.79 786.44 316.94 786.24 315.64C786.17 315.25 786.14 314.5 786.14 313.39C786.14 311.43 786.51 310.03 787.26 309.18C788.01 308.33 789.95 307.16 793.08 305.66C795.43 304.49 797.09 303.38 798.07 302.33C799.05 301.29 799.88 298.33 800.56 293.48C801.24 288.62 801.6 283.03 801.64 276.7C801.67 270.38 801.66 259.68 801.59 244.61C801.46 221.33 801.17 207.93 800.71 204.41C800.25 201.08 799.34 199.16 797.97 198.64C797.45 198.51 796.31 198.44 794.55 198.44C792.27 198.44 790.7 198.13 789.85 197.51C789 196.89 788.58 195.67 788.58 193.84C788.58 192.21 789.05 191.02 790 190.27C790.94 189.52 793.54 188.3 797.78 186.6L797.79 186.63ZM856.19 192.89C852.41 191 847.81 190.05 842.4 190.05C836.99 190.05 832.91 191 830.17 192.89C827.43 194.72 825.7 196.18 824.99 197.29C823.75 199.31 823 204.01 822.74 211.38C822.67 213.73 822.54 219.79 822.35 229.57C822.02 248.42 822.12 258.43 822.64 259.6C823.42 261.43 825.72 262.91 829.54 264.05C833.36 265.19 837.56 265.71 842.16 265.62C846.76 265.53 850.46 264.79 853.26 263.42C856.39 261.85 859.41 259.47 862.31 256.28C865.21 253.09 867.25 249.89 868.42 246.69C873.05 234.1 874.27 223.02 872.09 213.43C869.9 203.84 864.61 197 856.19 192.89Z" fill="white"/>
<path d="M920.55 137.33C923.55 136.94 925.39 136.78 926.08 136.84C926.76 136.91 927.3 137.3 927.69 138.01C928.01 138.92 928.31 158.98 928.57 198.17C928.7 229.15 928.89 246.79 929.16 251.09C929.55 257.35 930.59 261.3 932.29 262.93C932.94 263.58 934.7 264.56 937.57 265.86C938.03 265.99 938.42 266.15 938.74 266.35C942.52 268.18 944.82 269.68 945.64 270.85C946.45 272.02 946.31 273.65 945.2 275.74C944.48 277.17 941.87 278.02 937.37 278.28C932.87 278.54 921.85 278.54 904.31 278.28C898.25 278.15 894.63 277.89 893.45 277.5C892.27 277.11 891.53 275.8 891.2 273.59C890.81 271.37 891.05 269.71 891.93 268.6C892.81 267.49 894.39 266.78 896.67 266.45C898.63 266.12 900.24 265.46 901.51 264.44C902.78 263.43 904.04 261.72 905.28 259.3C906 257.93 906.44 254.72 906.6 249.66C906.76 244.61 906.84 230.5 906.84 207.35C906.84 180.03 906.64 164.57 906.25 160.98C905.92 157.72 905.17 155.99 904 155.8C903.74 155.74 902.76 155.8 901.07 156C896.57 156.72 894.52 155.12 894.91 151.21C895.04 150.04 895.55 149.12 896.43 148.47C897.31 147.82 899.67 146.68 903.52 145.05C906.52 143.75 909.19 142.44 911.54 141.14C913.89 139.84 915.6 138.92 916.68 138.4C917.76 137.88 919.04 137.52 920.54 137.32L920.55 137.33Z" fill="white"/>
<path d="M1022.97 177.83C1025.77 176.59 1027.53 176.07 1028.25 176.26C1029.68 176.65 1030.6 179.46 1030.99 184.67C1031.25 188.52 1031.51 199.47 1031.77 217.54C1032.03 239.19 1032.36 251.45 1032.75 254.32C1033.14 256.8 1033.92 258.1 1035.1 258.23C1035.43 258.3 1036.31 258.23 1037.74 258.03C1039.96 257.7 1041.49 257.85 1042.34 258.47C1043.19 259.09 1043.61 260.44 1043.61 262.53C1043.61 264.42 1043.17 265.81 1042.29 266.69C1041.41 267.57 1039.7 268.34 1037.15 268.99C1035.52 269.38 1034.15 269.95 1033.04 270.7C1031.93 271.45 1030.43 272.8 1028.54 274.76C1025.02 278.41 1022.21 279.94 1020.13 279.36C1018.05 278.78 1016.41 276 1015.24 271.05C1014.78 269.16 1014.29 267.94 1013.77 267.38C1013.25 266.83 1012.53 266.74 1011.62 267.14C1010.71 267.53 1009.3 268.51 1007.41 270.07C1001.87 274.77 995.33 277.96 987.8 279.66C980.27 281.35 973.31 281.32 966.92 279.56C960.53 277.8 956.13 274.54 953.71 269.78C951.75 265.8 950.5 261.66 949.94 257.36C949.38 253.06 948.98 243.44 948.72 228.5C948.39 211.74 948 202.22 947.55 199.94C947.16 198.12 946.31 196.97 945.01 196.52C944.81 196.39 944.36 196.23 943.64 196.03C939.66 194.86 937.87 192.41 938.26 188.69C938.39 186.99 939.16 185.77 940.56 185.02C941.96 184.27 945.21 183.34 950.29 182.23C955.31 181.19 959.19 180.11 961.93 179C964.99 177.76 966.82 177.18 967.41 177.24C968.78 177.31 969.69 179 970.15 182.33C970.54 185.33 970.83 197.1 971.03 217.64C971.29 239.29 971.67 251.93 972.15 255.55C972.64 259.17 973.73 261.6 975.43 262.84C975.89 263.23 977.03 263.88 978.85 264.8C984.39 267.67 990.2 268.01 996.26 265.83C1002.32 263.65 1006.73 259.65 1009.47 253.85C1010.38 251.83 1010.94 249.58 1011.13 247.1C1011.33 244.62 1011.42 237.74 1011.42 226.46C1011.42 212.37 1011.13 203.83 1010.54 200.83C1009.95 197.83 1008.29 196.3 1005.55 196.23C1003.92 196.23 1002.57 195.64 1001.49 194.47C1000.41 193.3 999.88 191.83 999.88 190.07C999.88 188.31 1000.56 186.88 1001.93 185.96C1003.3 185.05 1006.66 183.68 1012.01 181.85C1017.62 180.03 1021.27 178.69 1022.96 177.84L1022.97 177.83Z" fill="white"/>
<path d="M1071 173.82C1074.85 170.36 1078.04 169.94 1080.59 172.55C1081.5 173.53 1082.06 176.5 1082.25 181.45C1082.45 186.41 1082.58 203.26 1082.64 232.02C1082.7 246.76 1082.97 255.5 1083.42 258.24C1083.94 261.11 1085.18 263.2 1087.14 264.5C1087.73 264.83 1089.26 265.61 1091.74 266.85C1095.39 268.61 1097.69 270.09 1098.64 271.3C1099.58 272.51 1099.57 273.99 1098.59 275.75C1097.74 277.45 1096.96 278.29 1096.24 278.29C1090.04 278.49 1080.1 278.5 1066.4 278.34C1052.71 278.18 1045.73 277.97 1045.47 277.7C1044.75 276.98 1044.31 275.5 1044.15 273.25C1043.99 271 1044.2 269.52 1044.79 268.8C1045.31 268.08 1046.27 267.56 1047.68 267.23C1049.08 266.9 1050.47 266.63 1051.84 266.4C1053.21 266.17 1054.69 265.23 1056.29 263.56C1057.89 261.9 1059.18 259.47 1060.15 256.27C1060.8 254.18 1061.05 243.83 1060.88 225.21C1060.72 206.59 1060.31 196.66 1059.66 195.42C1059.2 194.64 1058.06 194.15 1056.24 193.95C1054.41 193.75 1052.6 193.69 1050.81 193.75C1049.02 193.82 1047.48 193.47 1046.21 192.72C1044.94 191.97 1044.53 190.68 1044.99 188.86C1045.32 187.62 1047.11 186.24 1050.37 184.7C1053.63 183.17 1057.4 181.42 1061.67 179.47C1065.94 177.51 1069.06 175.62 1071.01 173.8L1071 173.82ZM1064.35 134.2C1064.74 134.14 1065.17 134.05 1065.62 133.96C1066.08 133.86 1066.45 133.78 1066.74 133.72C1067.03 133.66 1067.21 133.62 1067.28 133.62C1069.37 133.23 1071.73 134.08 1074.37 136.16C1077.01 138.25 1079.13 140.86 1080.73 143.99C1082.33 147.12 1082.8 149.83 1082.15 152.11C1081.37 154.98 1078.95 157.98 1074.91 161.11C1070.87 164.24 1067.41 165.81 1064.54 165.81C1063.43 165.81 1061.15 164.51 1057.69 161.9C1054.23 159.29 1052.15 157.27 1051.43 155.84C1049.54 152.32 1050.06 148.11 1053 143.22C1055.94 138.33 1059.72 135.33 1064.35 134.22V134.2Z" fill="white"/>
<path d="M1133.51 176.95C1137.16 175.97 1140.02 175.47 1142.07 175.43C1144.12 175.4 1147.83 175.74 1153.17 176.46C1158.13 177.18 1162.64 178.66 1166.72 180.91C1170.79 183.16 1174.06 185.93 1176.5 189.22C1178.95 192.51 1180.67 196.05 1181.68 199.83C1182.69 203.61 1182.72 207.57 1181.78 211.72C1180.83 215.86 1178.93 219.76 1176.06 223.41C1174.3 225.63 1172.6 227.26 1170.97 228.3C1169.34 229.34 1165.26 231.4 1158.74 234.46C1155.28 236.09 1150.7 237.04 1145 237.3C1139.29 237.56 1134.48 237.04 1130.57 235.73C1127.37 234.69 1125.09 234.15 1123.72 234.12C1122.35 234.09 1121.31 234.5 1120.59 235.34C1119.09 237.17 1119.99 240.85 1123.28 246.39C1126.57 251.93 1130.34 256.04 1134.58 258.72C1142.73 263.87 1150.75 265.86 1158.64 264.69C1166.53 263.52 1172.73 259.38 1177.23 252.27C1180.36 247.31 1182.54 244.31 1183.78 243.27C1185.02 242.23 1186.23 242.33 1187.4 243.56C1188.18 244.34 1188.59 245.11 1188.62 245.86C1188.65 246.61 1188.31 248.29 1187.59 250.9C1186.09 256.57 1182.89 261.69 1178 266.26C1173.11 270.82 1167.04 274.4 1159.81 276.97C1152.57 279.54 1144.94 280.83 1136.92 280.83C1130.33 280.83 1123.76 278.69 1117.21 274.42C1110.66 270.15 1105.85 264.88 1102.78 258.62C1098.28 249.42 1095.65 241.14 1094.91 233.77C1094.16 226.4 1095.19 218.61 1097.99 210.39C1101.18 201 1105.57 193.7 1111.15 188.48C1116.73 183.26 1124.18 179.42 1133.5 176.94L1133.51 176.95ZM1154.05 189.86C1145.31 186.53 1137.55 186.91 1130.77 190.98C1123.99 195.06 1119.65 202.02 1117.76 211.86C1116.78 217.01 1116.65 220.61 1117.37 222.67C1118.09 224.72 1119.85 225.75 1122.65 225.75C1124.74 225.75 1127.44 226.21 1130.77 227.12C1134.23 228.03 1137.68 228.41 1141.14 228.24C1144.6 228.08 1147.71 227.47 1150.48 226.43C1153.25 225.39 1155.79 224 1158.11 222.27C1160.42 220.54 1162.17 218.52 1163.34 216.21C1164.51 213.9 1165.25 211.42 1165.54 208.78C1165.83 206.14 1165.33 203.42 1164.02 200.61C1162.65 197.48 1161.23 195.12 1159.76 193.52C1158.29 191.92 1156.39 190.7 1154.04 189.85L1154.05 189.86Z" fill="white"/>
<path d="M333.05 181.61C332.62 180.21 331.66 179.05 330.36 178.37C329.06 177.69 327.57 177.55 326.17 177.98L324.12 178.62C308.12 166.51 291.34 144.48 283.79 125.67L285.2 123.49C286.84 120.95 286.11 117.54 283.57 115.88C281.02 114.23 277.61 114.97 275.97 117.51L274.81 119.31C254.3 120.37 226.88 114.08 208.93 104.21L208.68 102.27C208.29 99.2599 205.53 97.1399 202.52 97.5199C199.51 97.9099 197.38 100.67 197.77 103.68L198.1 106.25C183.21 119.78 158.69 132.26 139.15 136.26L137.4 134.63C135.18 132.62 131.71 132.77 129.68 134.95C128.68 136.02 128.16 137.43 128.21 138.89C128.26 140.36 128.88 141.72 129.96 142.72L131.72 144.36C129.14 164.22 118.46 189.63 106.04 205.43L103.18 205.27C101.71 205.19 100.3 205.68 99.2101 206.66C98.1101 207.64 97.4701 208.99 97.3801 210.45C97.2901 212.12 97.9401 213.72 99.1901 214.84C100.12 215.68 101.32 216.18 102.57 216.25L105.09 216.39C116.15 233.48 124.4 260.19 124.91 280.58L123.11 281.94C121.94 282.83 121.18 284.11 120.98 285.57C120.78 287.03 121.15 288.47 122.04 289.65C122.25 289.93 122.49 290.19 122.74 290.42C124.69 292.18 127.64 292.31 129.74 290.73L131.75 289.21C151.02 295.27 173.58 309.8 187.15 324.89L186.48 327.77C186.02 329.72 186.66 331.77 188.15 333.11C188.84 333.73 189.68 334.17 190.58 334.38C191 334.48 191.42 334.53 191.85 334.53C192.86 334.53 193.86 334.25 194.74 333.7C195.99 332.93 196.86 331.71 197.2 330.28L197.74 327.99C216.55 319.98 244.42 316.47 264.71 319.54L265.73 321.52C266.03 322.11 266.44 322.64 266.93 323.08C268.62 324.61 271.12 324.93 273.14 323.88C274.45 323.21 275.41 322.06 275.86 320.66C276.31 319.26 276.18 317.77 275.51 316.47L274.34 314.21C283.6 296.45 302.33 276.29 319.34 265.76L321.58 266.7C322.94 267.27 324.43 267.28 325.79 266.72C327.15 266.16 328.21 265.11 328.78 263.76C329.35 262.4 329.36 260.91 328.8 259.54C328.24 258.18 327.19 257.12 325.84 256.55L323.86 255.72C319.4 236.12 320.72 208.45 327.05 189.21L329.46 188.46C332.36 187.56 333.98 184.48 333.09 181.58L333.05 181.61ZM231.55 215.13C231.84 216.95 231.73 218.83 231.24 220.63L324.46 259.81C324.95 260.02 325.33 260.4 325.54 260.9C325.74 261.39 325.74 261.94 325.54 262.43C325.33 262.92 324.95 263.3 324.45 263.51C323.96 263.71 323.41 263.71 322.92 263.51L229.61 224.29C229.24 224.85 228.85 225.4 228.38 225.91C227.62 226.75 226.76 227.46 225.85 228.06L272.38 318.11C272.63 318.58 272.67 319.13 272.51 319.63C272.35 320.14 272 320.55 271.52 320.8C270.57 321.29 269.32 320.9 268.83 319.94L222.2 229.7C220.53 230.16 218.78 230.29 217.07 230.07L193.79 329.5C193.67 330.02 193.35 330.46 192.9 330.74C192.45 331.02 191.91 331.11 191.39 330.99C190.34 330.74 189.66 329.62 189.9 328.59L213.23 228.96C212.09 228.43 211.01 227.72 210.03 226.84C209.82 226.65 209.63 226.44 209.43 226.24L127.64 287.96C126.77 288.61 125.5 288.45 124.84 287.57C124.52 287.14 124.38 286.62 124.46 286.09C124.53 285.56 124.81 285.09 125.24 284.77L207.12 222.98C206.43 221.59 206 220.09 205.84 218.57L102.78 212.79C101.71 212.73 100.83 211.75 100.9 210.68C100.93 210.15 101.17 209.66 101.56 209.3C101.96 208.94 102.47 208.76 103.01 208.79L206.03 214.57C206.33 213.1 206.88 211.68 207.7 210.36L132.36 140.18C131.97 139.82 131.74 139.32 131.72 138.79C131.7 138.26 131.89 137.75 132.26 137.36C133.02 136.55 134.25 136.5 135.07 137.24C135.07 137.24 135.08 137.25 135.09 137.26L210.31 207.33C211.55 206.27 212.94 205.47 214.42 204.95L201.26 103.26C201.12 102.17 201.89 101.16 202.99 101.02C204.08 100.88 205.09 101.65 205.23 102.75L218.36 204.23C220.1 204.18 221.85 204.48 223.5 205.12L278.93 119.44C279.53 118.51 280.77 118.25 281.69 118.84C282.61 119.44 282.88 120.69 282.29 121.61L226.96 207.14C227.13 207.28 227.3 207.41 227.47 207.55C228.7 208.66 229.65 209.95 230.35 211.35L327.24 181.35C327.75 181.19 328.29 181.24 328.76 181.49C329.23 181.74 329.58 182.16 329.74 182.67C330.07 183.72 329.47 184.85 328.42 185.17L231.58 215.15L231.55 215.13Z" fill="white"/>
<path d="M224.75 210.49C221.07 207.16 215.37 207.45 212.04 211.14C208.71 214.82 209 220.53 212.69 223.85C216.37 227.18 222.07 226.89 225.4 223.2C228.73 219.52 228.44 213.81 224.75 210.49Z" fill="white"/>
</svg>
